<svg width="661" height="100" viewBox="0 0 661 100" fill="none" xmlns="http://www.w3.org/2000/svg">
<path d="M32.032 91.52C26.4 91.52 21.4507 90.4533 17.184 88.32C13.0027 86.1867 9.76 83.1147 7.456 79.104C5.152 75.008 4 70.1867 4 64.64V45.44C4 39.808 5.152 34.9867 7.456 30.976C9.76 26.9653 13.0027 23.8933 17.184 21.76C21.4507 19.6267 26.4 18.56 32.032 18.56C40.1387 18.56 46.6667 20.736 51.616 25.088C56.5653 29.44 59.168 35.3707 59.424 42.88H47.904C47.648 38.3573 46.112 34.9013 43.296 32.512C40.5653 30.0373 36.8107 28.8 32.032 28.8C26.9973 28.8 22.9867 30.2507 20 33.152C17.0133 35.968 15.52 40.0213 15.52 45.312V64.64C15.52 69.9307 17.0133 74.0267 20 76.928C22.9867 79.8293 26.9973 81.28 32.032 81.28C36.8107 81.28 40.5653 80.0427 43.296 77.568C46.112 75.0933 47.648 71.6373 47.904 67.2H59.424C59.168 74.7093 56.5653 80.64 51.616 84.992C46.6667 89.344 40.1387 91.52 32.032 91.52ZM108.27 91.264C102.638 91.264 97.774 90.1973 93.678 88.064C89.582 85.9307 86.382 82.8587 84.078 78.848C81.8593 74.752 80.75 69.9307 80.75 64.384V45.696C80.75 40.064 81.8593 35.2427 84.078 31.232C86.382 27.2213 89.582 24.1493 93.678 22.016C97.774 19.8827 102.638 18.816 108.27 18.816C113.902 18.816 118.766 19.8827 122.862 22.016C126.958 24.1493 130.115 27.2213 132.334 31.232C134.638 35.2427 135.79 40.0213 135.79 45.568V64.384C135.79 69.9307 134.638 74.752 132.334 78.848C130.115 82.8587 126.958 85.9307 122.862 88.064C118.766 90.1973 113.902 91.264 108.27 91.264ZM108.27 81.024C113.305 81.024 117.23 79.616 120.046 76.8C122.862 73.984 124.27 69.8453 124.27 64.384V45.696C124.27 40.2347 122.862 36.096 120.046 33.28C117.23 30.464 113.305 29.056 108.27 29.056C103.321 29.056 99.3953 30.464 96.494 33.28C93.678 36.096 92.27 40.2347 92.27 45.696V64.384C92.27 69.8453 93.678 73.984 96.494 76.8C99.3953 79.616 103.321 81.024 108.27 81.024ZM158.396 90.24V19.84H169.916V33.28H172.348L169.916 35.968C169.916 30.4213 171.58 26.1547 174.908 23.168C178.236 20.096 182.844 18.56 188.732 18.56C195.815 18.56 201.447 20.736 205.628 25.088C209.809 29.44 211.9 35.3707 211.9 42.88V90.24H200.38V44.16C200.38 39.1253 199.015 35.2853 196.284 32.64C193.639 29.9093 190.012 28.544 185.404 28.544C180.625 28.544 176.828 29.9947 174.012 32.896C171.281 35.7973 169.916 39.9787 169.916 45.44V90.24H158.396ZM269.45 90.24C263.391 90.24 258.655 88.6187 255.242 85.376C251.914 82.1333 250.25 77.568 250.25 71.68V30.336H230.41V19.84H250.25V0H261.77V19.84H289.93V30.336H261.77V71.68C261.77 77.056 264.33 79.744 269.45 79.744H288.65V90.24H269.45ZM338.52 91.52C332.973 91.52 328.109 90.4107 323.928 88.192C319.832 85.9733 316.632 82.8587 314.328 78.848C312.109 74.752 311 70.016 311 64.64V45.44C311 39.9787 312.109 35.2427 314.328 31.232C316.632 27.2213 319.832 24.1067 323.928 21.888C328.109 19.6693 332.973 18.56 338.52 18.56C344.067 18.56 348.888 19.6693 352.984 21.888C357.165 24.1067 360.365 27.2213 362.584 31.232C364.888 35.2427 366.04 39.9787 366.04 45.44V57.856H322.264V64.64C322.264 70.1867 323.672 74.4533 326.488 77.44C329.304 80.3413 333.315 81.792 338.52 81.792C342.957 81.792 346.541 81.024 349.272 79.488C352.003 77.8667 353.667 75.4773 354.264 72.32H365.784C365.016 78.208 362.115 82.9013 357.08 86.4C352.131 89.8133 345.944 91.52 338.52 91.52ZM354.776 50.176V45.44C354.776 39.8933 353.368 35.6267 350.552 32.64C347.821 29.6533 343.811 28.16 338.52 28.16C333.315 28.16 329.304 29.6533 326.488 32.64C323.672 35.6267 322.264 39.8933 322.264 45.44V49.152H355.672L354.776 50.176ZM383.27 90.24L408.23 54.016L384.806 19.84H398.374L412.326 41.6C412.923 42.5387 413.478 43.5627 413.99 44.672C414.587 45.7813 415.057 46.6773 415.398 47.36C415.654 46.6773 416.038 45.7813 416.55 44.672C417.147 43.5627 417.745 42.5387 418.342 41.6L432.422 19.84H445.862L422.438 54.144L447.27 90.24H433.702L418.598 67.2C418.001 66.2613 417.403 65.1947 416.806 64C416.294 62.72 415.825 61.696 415.398 60.928C415.057 61.696 414.545 62.72 413.862 64C413.265 65.1947 412.625 66.2613 411.942 67.2L396.71 90.24H383.27ZM499.7 90.24C493.641 90.24 488.905 88.6187 485.492 85.376C482.164 82.1333 480.5 77.568 480.5 71.68V30.336H460.66V19.84H480.5V0H492.02V19.84H520.18V30.336H492.02V71.68C492.02 77.056 494.58 79.744 499.7 79.744H518.9V90.24H499.7ZM544.578 90.24V19.84H555.842V33.28H558.53L554.818 41.6C554.818 34.0053 556.439 28.288 559.682 24.448C563.01 20.5227 567.917 18.56 574.402 18.56C581.826 18.56 587.714 20.9067 592.066 25.6C596.503 30.208 598.722 36.48 598.722 44.416V48.64H587.202V45.44C587.202 39.8933 585.837 35.6693 583.106 32.768C580.461 29.7813 576.663 28.288 571.714 28.288C566.85 28.288 563.01 29.7813 560.194 32.768C557.463 35.7547 556.098 39.9787 556.098 45.44V90.24H544.578Z" fill="#1C1C1E"/>
<path d="M645.52 91.52C642.277 91.52 639.675 90.5813 637.712 88.704C635.835 86.8267 634.896 84.3093 634.896 81.152C634.896 77.824 635.835 75.1787 637.712 73.216C639.675 71.2533 642.277 70.272 645.52 70.272C648.763 70.272 651.323 71.2533 653.2 73.216C655.163 75.1787 656.144 77.824 656.144 81.152C656.144 84.3093 655.163 86.8267 653.2 88.704C651.323 90.5813 648.763 91.52 645.52 91.52Z" fill="#C8943E"/>
</svg>